<svg id="Capa_1" enable-background="new 0 0 512 512" height="512" viewBox="0 0 512 512" width="512" xmlns="http://www.w3.org/2000/svg"><path d="m323.065 144.145h29.639v61.218h-29.639z" transform="matrix(.707 -.707 .707 .707 -24.606 290.105)"/><path d="m281.149 186.061h29.639v61.218h-29.639z" transform="matrix(.707 -.707 .707 .707 -66.521 272.743)"/><path d="m377.119 66.427c-2.395 1.14-3.462 3.942-2.428 6.378l.195.459 5.027 16.23c-.269.242-.538.483-.799.743l-31.437 31.436 43.288 43.287 31.437-31.436c.352-.352.686-.713 1.005-1.08l16.248 5.033c2.328.721 4.873-.395 5.921-2.596 20.398-42.857 61.755-62.735 63.564-63.587 1.21-.561 2.155-1.606 2.591-2.868.436-1.26.339-2.665-.265-3.854l-20.823-40.936c-.236-.464-.543-.886-.912-1.254-.368-.368-.79-.675-1.253-.91l-40.354-20.527-.344-.212c-1.032-.636-2.258-.869-3.454-.657-1.588.282-2.94 1.324-3.619 2.788-.198.428-20.313 42.967-63.588 63.563z"/><path d="m267.271 387.038c-.558-8.987 5.227-17.015 13.755-19.089 15.03-3.655 28.754-11.422 39.689-22.461 7.775-7.849 13.823-17.01 17.979-27.228 2.249-5.527.96-11.854-3.247-16.06-.064-.064-.129-.128-.195-.191-4.361-4.205-10.841-5.332-16.366-2.846-15.064 6.777-35.402 3.07-53.316-8.809l20.605-20.604-43.288-43.287-13.05 13.05c-2.872-14.345-.31-27.821 8.412-36.543 2.507-2.507 5.456-4.564 8.765-6.115 5.731-2.686 9.123-8.715 8.444-15.008-.678-6.293-5.279-11.46-11.451-12.862-28.272-6.422-57.349 1.848-77.782 22.122-11.062 10.976-18.828 24.752-22.456 39.837-2.049 8.518-10.074 14.31-19.082 13.771-34.25-2.049-67.711 10.595-91.805 34.689-43.846 43.846-43.846 115.188 0 159.033l40.681 40.68c43.846 43.846 115.188 43.846 159.034 0 24.17-24.17 36.807-57.73 34.674-92.079zm-115.75 4.676-31.234-31.234c-5.787-5.787-5.787-15.17 0-20.958 5.787-5.787 15.17-5.787 20.958 0l31.234 31.234c5.787 5.787 5.787 15.17 0 20.958-5.788 5.787-15.171 5.787-20.958 0zm46.851-46.851-31.234-31.234c-5.787-5.787-5.787-15.17 0-20.958 5.787-5.787 15.17-5.787 20.958 0l31.234 31.234c5.787 5.787 5.787 15.17 0 20.958-5.787 5.787-15.171 5.787-20.958 0z"/></svg>