<?xml version="1.0" encoding="iso-8859-1"?>
<!-- Generator: Adobe Illustrator 19.0.0, SVG Export Plug-In . SVG Version: 6.00 Build 0)  -->
<svg version="1.1" id="Capa_1" xmlns="http://www.w3.org/2000/svg" xmlns:xlink="http://www.w3.org/1999/xlink" x="0px" y="0px"
	 viewBox="0 0 512 512" style="enable-background:new 0 0 512 512;" xml:space="preserve">
<path style="fill:#00CCB2;" d="M334.069,12.117C245.893-16.186,145.491,5.485,75.433,75.545
	c-70.74,70.74-92.073,172.402-62.531,261.189l42.234,27.892l96.766-57.315l17.541-27.416c-2.1-7.631-3.585-15.511-3.585-23.809
	c0-49.771,40.346-90.117,90.117-90.117c7.349,0,14.389,1.123,21.226,2.784l27.67-18.241l57.181-96.409L334.069,12.117z"/>
<path style="fill:#00AB94;" d="M499.941,177.988l-41.985-27.983l-96.406,57.186l-18.241,27.67
	c1.659,6.837,2.784,13.877,2.784,21.226c0,49.771-40.346,90.117-90.117,90.117c-8.298,0-16.178-1.485-23.809-3.585l-27.416,17.541
	l-57.318,96.763l27.892,41.236c90.793,30.212,188.449,11.213,261.193-61.53C506.576,366.57,528.243,266.165,499.941,177.988z"/>
<path style="fill:#00EED0;" d="M499.993,177.984l-156.605,56.774c-3.903-16.521-12.315-30.939-23.73-42.354
	s-25.833-19.827-42.354-23.732l56.773-156.603c36.649,11.715,72.997,34.045,102.434,63.483S488.276,141.638,499.993,177.984z"/>
<path style="fill:#00CCB2;" d="M499.993,177.984l-156.605,56.774c-3.903-16.521-12.315-30.939-23.73-42.354L436.509,75.552
	C465.948,104.989,488.276,141.638,499.993,177.984z"/>
<path style="fill:#00EED0;" d="M232.245,342.599L175.472,498.2c-35.746-12.017-71.192-32.743-100.031-61.58
	C46.605,407.782,24.877,372.337,12.86,336.59l156.603-56.774c4.205,15.621,12.017,29.139,22.83,39.953
	C203.107,330.282,216.324,338.393,232.245,342.599z"/>
<path style="fill:#00CCB2;" d="M192.293,319.769c10.814,10.513,24.031,18.624,39.953,22.83L175.472,498.2
	c-35.746-12.017-71.192-32.743-100.031-61.58L192.293,319.769z"/>
<path style="fill:#FFD400;" d="M330.17,181.889c-18.923-19.224-45.357-30.939-74.195-30.939
	c-57.975,0-105.136,47.161-105.136,105.136c0,28.836,11.715,55.271,30.941,74.195c18.923,19.225,45.357,30.941,74.195,30.941
	c57.975,0,105.136-47.161,105.136-105.136C361.112,227.249,349.395,200.815,330.17,181.889z M255.975,301.145
	c-12.615,0-23.73-5.108-31.841-13.217c-8.112-8.112-13.217-19.225-13.217-31.841c0-24.933,20.125-45.058,45.058-45.058
	c12.615,0,23.73,5.106,31.841,13.217c8.112,8.11,13.217,19.224,13.217,31.841C301.034,281.018,280.908,301.145,255.975,301.145z"/>
<path style="fill:#FDBF00;" d="M330.17,181.889l-42.354,42.356l0,0c8.112,8.11,13.217,19.224,13.217,31.841
	c0,24.931-20.125,45.058-45.058,45.058c-12.615,0-23.73-5.108-31.841-13.217l0,0l-42.354,42.354
	c18.923,19.225,45.357,30.941,74.195,30.941c57.975,0,105.136-47.161,105.136-105.136
	C361.112,227.249,349.395,200.815,330.17,181.889z"/>
<g>
</g>
<g>
</g>
<g>
</g>
<g>
</g>
<g>
</g>
<g>
</g>
<g>
</g>
<g>
</g>
<g>
</g>
<g>
</g>
<g>
</g>
<g>
</g>
<g>
</g>
<g>
</g>
<g>
</g>
</svg>
