<?xml version="1.0" encoding="iso-8859-1"?>
<!-- Generator: Adobe Illustrator 16.0.0, SVG Export Plug-In . SVG Version: 6.00 Build 0)  -->
<!DOCTYPE svg PUBLIC "-//W3C//DTD SVG 1.1//EN" "http://www.w3.org/Graphics/SVG/1.1/DTD/svg11.dtd">
<svg version="1.1" id="Capa_1" xmlns="http://www.w3.org/2000/svg" xmlns:xlink="http://www.w3.org/1999/xlink" x="0px" y="0px"
	 width="492.192px" height="492.192px" viewBox="0 0 492.192 492.192" style="enable-background:new 0 0 492.192 492.192;"
	 xml:space="preserve">
<g>
	<g>
		<path d="M255.541,371.602c0-69.913,56.88-126.792,126.792-126.792c30.922,0,59.287,11.131,81.313,29.589
			C477.06,170.393,418.46,66.833,316.22,27.564C196.241-18.519,61.617,41.388,15.535,161.369
			C-30.547,281.35,29.359,415.973,149.342,462.056c50.072,19.23,102.69,19.988,150.36,5.639
			C272.682,444.423,255.541,409.978,255.541,371.602z M304.854,57.161c21.582,8.289,40.715,20.189,56.992,34.728l-78.228,77.395
			c-5.407-4.014-11.428-7.382-18.021-9.916c-6.594-2.531-13.322-4.06-20.025-4.695l-6.307-109.863
			C261.092,44.903,283.27,48.871,304.854,57.161z M160.709,432.457c-21.582-8.288-40.715-20.188-56.992-34.729l78.227-77.394
			c5.408,4.013,11.428,7.383,18.021,9.914c6.593,2.532,13.322,4.061,20.025,4.696l6.307,109.862
			C204.471,444.714,182.293,440.746,160.709,432.457z M215.541,289.697c-24.791-9.521-37.168-37.338-27.646-62.127
			c9.521-24.792,37.338-37.169,62.127-27.646c24.789,9.521,37.168,37.338,27.646,62.128
			C268.147,286.839,240.33,299.216,215.541,289.697z"/>
		<path d="M436.938,360.822l-62.703-45.541c-4.352-3.161-10.106-3.611-14.899-1.17c-4.791,2.442-7.81,7.365-7.81,12.744v91.081
			c0,5.378,3.019,10.301,7.81,12.741c2.051,1.044,4.274,1.56,6.494,1.56c2.965,0,5.916-0.921,8.405-2.729l62.703-45.541
			c3.705-2.689,5.896-6.991,5.896-11.572C442.834,367.815,440.643,363.511,436.938,360.822z"/>
		<path d="M384.426,264.625c-59.424,0-107.769,48.346-107.769,107.769c0,59.422,48.345,107.77,107.769,107.77
			s107.766-48.348,107.766-107.77C492.192,312.971,443.85,264.625,384.426,264.625z M384.426,453.679
			c-44.82,0-81.285-36.464-81.285-81.285s36.465-81.284,81.285-81.284s81.285,36.463,81.285,81.284S429.247,453.679,384.426,453.679
			z"/>
	</g>
</g>
<g>
</g>
<g>
</g>
<g>
</g>
<g>
</g>
<g>
</g>
<g>
</g>
<g>
</g>
<g>
</g>
<g>
</g>
<g>
</g>
<g>
</g>
<g>
</g>
<g>
</g>
<g>
</g>
<g>
</g>
</svg>
